# xmcd CD database file
#
# Track frame offsets:
#	150
#	21440
#	45460
#	66852
#	86002
#	107330
#	129847
#	148167
#	171140
#	183627
#
# Disc length: 2899 seconds
#
# Revision: 0
# Processed by: cddbd v1.5.1PL0 Copyright (c) Steve Scherf et al.
# Submitted via: CDex 1.51
#
DISCID=850b510a
DTITLE=Jan Skovgaard Petersen - Ocean Dreams
DYEAR=2002
DGENRE=New Age
TTITLE0=The Meeting
TTITLE1=Together again
TTITLE2=The First Wave
TTITLE3=Joy
TTITLE4=The Play of Love
TTITLE5=The Ocean Dream
TTITLE6=In the waves with Love
TTITLE7=The second Wave
TTITLE8=Ocean Lullaby
TTITLE9=The Departure
EXTD=YEAR: 2002
EXTT0=
EXTT1=
EXTT2=
EXTT3=
EXTT4=
EXTT5=
EXTT6=
EXTT7=
EXTT8=
EXTT9=
PLAYORDER=
